<svg version="1.1" id="Layer_1" xmlns="http://www.w3.org/2000/svg" xmlns:xlink="http://www.w3.org/1999/xlink" viewBox="-51.2 -51.2 614.40 614.40" xml:space="preserve" width="212px" height="212px" fill="#f3aef4" stroke="#f3aef4"><g id="SVGRepo_bgCarrier" stroke-width="0"></g><g id="SVGRepo_tracerCarrier" stroke-linecap="round" stroke-linejoin="round" stroke="#CCCCCC" stroke-width="2.048"></g><g id="SVGRepo_iconCarrier"> <rect x="304.48" y="209.76" width="60.912" height="15.648"></rect> <g> <rect x="426.352" y="209.76" style="fill:#ac3dc2;" width="60.912" height="15.648"></rect> <rect x="60.912" y="209.76" style="fill:#ac3dc2;" width="182.72" height="15.648"></rect> </g> <rect x="182.72" y="171.472" width="121.808" height="15.648"></rect> <g> <rect x="365.44" y="171.472" style="fill:#ac3dc2;" width="60.912" height="15.648"></rect> <rect x="60.912" y="133.12" style="fill:#ac3dc2;" width="60.912" height="15.648"></rect> </g> <rect x="182.72" y="133.12" width="60.912" height="15.648"></rect> <rect x="304.48" y="133.12" style="fill:#ac3dc2;" width="60.912" height="15.648"></rect> <rect x="426.352" y="133.12" width="60.912" height="15.648"></rect> <rect y="248.176" style="fill:#ac3dc2;" width="60.912" height="15.648"></rect> <rect x="121.808" y="248.176" width="121.808" height="15.648"></rect> <rect x="365.44" y="248.176" width="121.808" height="15.648"></rect> <rect x="207.472" y="324.88" width="60.912" height="15.648"></rect> <g> <rect x="85.648" y="324.88" style="fill:#ac3dc2;" width="60.912" height="15.648"></rect> <rect x="329.28" y="324.88" style="fill:#ac3dc2;" width="182.72" height="15.648"></rect> </g> <rect x="268.368" y="286.528" width="121.808" height="15.648"></rect> <rect x="24.736" y="286.528" width="60.912" height="15.648"></rect> <rect x="146.56" y="286.528" style="fill:#ac3dc2;" width="60.912" height="15.648"></rect> <rect x="329.28" y="363.232" width="121.808" height="15.648"></rect> <rect x="85.648" y="363.232" width="121.808" height="15.648"></rect> </g></svg>